<?xml version="1.0" standalone="no"?>
<!DOCTYPE svg PUBLIC "-//W3C//DTD SVG 20010904//EN"
 "http://www.w3.org/TR/2001/REC-SVG-20010904/DTD/svg10.dtd">
<svg version="1.0" xmlns="http://www.w3.org/2000/svg"
 width="428.000000pt" height="428.000000pt" viewBox="0 0 428.000000 428.000000"
 preserveAspectRatio="xMidYMid meet">
<metadata>
Created by potrace 1.14, written by Peter Selinger 2001-2017
</metadata>
<g transform="translate(0.000000,428.000000) scale(0.100000,-0.100000)"
fill="#000000" stroke="none">
<path d="M303 4048 c-60 -13 -160 -83 -205 -143 -40 -52 -74 -131 -85 -193
-11 -70 -9 -533 4 -594 29 -143 122 -261 244 -311 l64 -26 1811 0 1810 -1 63
25 c119 46 209 148 246 277 27 94 28 569 1 678 -24 101 -126 222 -223 268
l-58 27 -1815 2 c-1128 0 -1831 -3 -1857 -9z m3538 -417 c3 -1 5 -94 5 -208 0
-159 -3 -209 -13 -213 -9 -4 -3234 -5 -3369 -1 l-31 1 0 210 c1 177 3 210 16
212 12 3 3376 1 3392 -1z"/>
<path d="M341 2347 c-119 -17 -227 -100 -287 -221 -44 -91 -50 -140 -48 -451
1 -228 4 -256 23 -313 50 -147 146 -242 281 -277 34 -9 496 -11 1850 -11
l1805 1 65 31 c109 52 179 133 221 256 20 58 21 84 22 338 1 301 -5 347 -55
440 -51 97 -123 160 -224 195 -46 16 -171 18 -1825 19 -977 0 -1799 -2 -1828
-7z m3505 -634 l1 -213 -1707 0 -1707 0 0 208 c0 114 4 210 9 213 5 3 772 5
1706 5 l1697 -1 1 -212z"/>
<path d="M9 636 c-1 -6 -2 -102 -2 -214 l-2 -202 1280 2 1280 3 0 210 0 210
-1277 1 c-906 0 -1278 -3 -1279 -10z"/>
</g>
</svg>
